<svg xmlns="http://www.w3.org/2000/svg" viewBox="0 0 100 100" width="100" height="100">
  <style>
    .primary { fill: #2c3e50; }
    .accent { fill: #3498db; }
    .light { fill: #ecf0f1; }
  </style>
  <circle class="light" cx="50" cy="50" r="45"/>
  <path class="primary" d="M50 10C27.9 10 10 27.9 10 50s17.9 40 40 40 40-17.9 40-40S72.1 10 50 10zm0 70c-16.5 0-30-13.5-30-30s13.5-30 30-30 30 13.5 30 30-13.5 30-30 30z"/>
  <path class="accent" d="M65 35c-4.1 0-7.5 3.4-7.5 7.5S60.9 50 65 50s7.5-3.4 7.5-7.5S69.1 35 65 35zM35 35c-4.1 0-7.5 3.4-7.5 7.5S30.9 50 35 50s7.5-3.4 7.5-7.5S39.1 35 35 35z"/>
  <path class="accent" d="M50 60c-8.3 0-15 4.5-15 10h30c0-5.5-6.7-10-15-10z"/>
  <circle class="primary" cx="50" cy="50" r="5"/>
</svg>
